<svg width="38" height="38" viewBox="0 0 38 38" fill="none" xmlns="http://www.w3.org/2000/svg">
<path d="M32.7365 6.20549C32.6216 5.8248 32.4278 5.47344 32.1679 5.175C31.9081 4.87657 31.5882 4.63797 31.2299 4.47524C30.874 4.30645 30.4851 4.2212 30.0922 4.22583H7.96951C7.57678 4.20344 7.18499 4.28397 6.83186 4.45965C6.46571 4.62419 6.14016 4.8691 5.87869 5.17669C5.61895 5.47461 5.42501 5.82538 5.30986 6.20549C5.19072 6.58265 5.154 6.98158 5.20225 7.37458L7.72353 29.1976C7.89264 30.6909 8.59983 32.0658 9.70673 33.0634C10.7887 34.0598 12.1961 34.6151 13.6578 34.6222H24.4193C25.8858 34.6159 27.2983 34.0608 28.3857 33.0634C29.4782 32.0561 30.1766 30.6839 30.3536 29.1976L31.7218 16.9299V16.7429L32.7826 7.39017C32.8421 6.99592 32.8265 6.59376 32.7365 6.20549ZM17.2091 30.1329H15.6717C14.6758 30.0767 13.7278 29.6812 12.9813 29.0105C12.2375 28.3309 11.7486 27.4111 11.5977 26.4074L11.2287 23.7262C11.1814 23.3175 11.2937 22.9063 11.5417 22.5805C11.7897 22.2548 12.1536 22.0404 12.5556 21.9834C12.9575 21.9263 13.3655 22.0311 13.6922 22.2753C14.0189 22.5194 14.2383 22.8836 14.3035 23.2898L14.6724 25.9397C14.7138 26.2294 14.8555 26.4946 15.0721 26.6879C15.287 26.8878 15.5648 27.0039 15.8562 27.0153H17.3936C17.8013 27.0153 18.1923 27.1795 18.4807 27.4718C18.769 27.7642 18.9309 28.1607 18.9309 28.5741C18.9309 28.9875 18.769 29.384 18.4807 29.6763C18.1923 29.9686 17.8013 30.1329 17.3936 30.1329H17.2091ZM29.508 15.7453C26.2642 16.3844 23.4969 16.5091 20.5605 14.1865C16.917 11.2715 12.5047 12.2068 8.26161 13.7344L7.49293 7.12517C7.4778 7.0585 7.4778 6.98921 7.49293 6.92253C7.51385 6.85704 7.55089 6.79803 7.60054 6.75107C7.63692 6.69354 7.69094 6.64972 7.75428 6.62636C7.81458 6.60903 7.87846 6.60903 7.93876 6.62636H30.2613C30.319 6.65906 30.371 6.70119 30.4151 6.75107C30.4612 6.79783 30.4919 6.85862 30.5073 6.92253C30.5308 6.99334 30.5308 7.06996 30.5073 7.14076L29.508 15.7453Z" fill="#9BE1A0"/>
</svg>
